<svg width="43" height="43" viewBox="0 0 43 43" fill="none" xmlns="http://www.w3.org/2000/svg">
<mask id="mask0_777_5493" style="mask-type:luminance" maskUnits="userSpaceOnUse" x="0" y="-1" width="44" height="44">
<path d="M43.0078 -0.0078125H0.5V42.5H43.0078V-0.0078125Z" fill="white"/>
</mask>
<g mask="url(#mask0_777_5493)">
<path d="M21.7539 3.81954C27.4327 3.81954 28.1052 3.84446 30.3385 3.94408C32.414 4.0354 33.5348 4.38411 34.2821 4.67468C35.27 5.05659 35.9841 5.52152 36.7229 6.26042C37.4702 7.00764 37.9268 7.71333 38.3087 8.70131C38.5993 9.44849 38.9479 10.5776 39.0393 12.6449C39.1389 14.8865 39.1638 15.559 39.1638 21.2295C39.1638 26.9083 39.1389 27.5807 39.0393 29.814C38.9479 31.8897 38.5993 33.0105 38.3087 33.7576C37.9268 34.7457 37.4618 35.4596 36.7229 36.1985C35.9757 36.9457 35.27 37.4024 34.2821 37.7843C33.5348 38.0748 32.4057 38.4236 30.3385 38.5149C28.0968 38.6145 27.4243 38.6394 21.7539 38.6394C16.0751 38.6394 15.4026 38.6145 13.1694 38.5149C11.0937 38.4236 9.97295 38.0748 9.22572 37.7843C8.23774 37.4024 7.52375 36.9375 6.78485 36.1985C6.03764 35.4513 5.58101 34.7457 5.1991 33.7576C4.90853 33.0105 4.55983 31.8813 4.4685 29.814C4.36887 27.5725 4.34397 26.9 4.34397 21.2295C4.34397 15.5507 4.36887 14.8782 4.4685 12.6449C4.55983 10.5693 4.90853 9.44849 5.1991 8.70131C5.58101 7.71333 6.04594 6.99933 6.78485 6.26042C7.53205 5.51322 8.23774 5.05659 9.22572 4.67468C9.97295 4.38411 11.1021 4.0354 13.1694 3.94408C15.4026 3.84446 16.0751 3.81954 21.7539 3.81954ZM21.7539 -0.0078125C15.9838 -0.0078125 15.2615 0.0170944 12.995 0.116722C10.7368 0.21635 9.18421 0.581651 7.83923 1.1047C6.43615 1.65265 5.24892 2.37494 4.06999 3.56218C2.88276 4.7411 2.16046 5.92834 1.61251 7.32312C1.08946 8.67639 0.724162 10.2206 0.624534 12.4788C0.524907 14.7536 0.5 15.476 0.5 21.2461C0.5 27.0162 0.524907 27.7385 0.624534 30.005C0.724162 32.2632 1.08946 33.8158 1.61251 35.1607C2.16046 36.5638 2.88276 37.751 4.06999 38.93C5.24892 40.1089 6.43615 40.8395 7.83093 41.3792C9.18421 41.9022 10.7284 42.2675 12.9867 42.3671C15.2532 42.4668 15.9755 42.4916 21.7456 42.4916C27.5157 42.4916 28.238 42.4668 30.5046 42.3671C32.7628 42.2675 34.3153 41.9022 35.6602 41.3792C37.055 40.8395 38.2423 40.1089 39.4212 38.93C40.6002 37.751 41.3308 36.5638 41.8703 35.1691C42.3934 33.8158 42.7587 32.2715 42.8584 30.0133C42.958 27.7468 42.9829 27.0245 42.9829 21.2544C42.9829 15.4843 42.958 14.762 42.8584 12.4955C42.7587 10.2373 42.3934 8.6847 41.8703 7.33973C41.3473 5.92833 40.625 4.7411 39.4378 3.56218C38.2589 2.38325 37.0717 1.65265 35.6769 1.11299C34.3236 0.589953 32.7793 0.224652 30.5211 0.125024C28.2463 0.0170944 27.524 -0.0078125 21.7539 -0.0078125Z" fill="#FAFAFA"/>
<path d="M21.7534 10.3286C15.726 10.3286 10.8359 15.2187 10.8359 21.2461C10.8359 27.2735 15.726 32.1636 21.7534 32.1636C27.7809 32.1636 32.6709 27.2735 32.6709 21.2461C32.6709 15.2187 27.7809 10.3286 21.7534 10.3286ZM21.7534 28.328C17.8431 28.328 14.6716 25.1565 14.6716 21.2461C14.6716 17.3358 17.8431 14.1642 21.7534 14.1642C25.6638 14.1642 28.8353 17.3358 28.8353 21.2461C28.8353 25.1565 25.6638 28.328 21.7534 28.328Z" fill="#FAFAFA"/>
<path d="M35.6523 9.89695C35.6523 11.3084 34.5066 12.4457 33.1035 12.4457C31.6921 12.4457 30.5547 11.3001 30.5547 9.89695C30.5547 8.48556 31.7005 7.34814 33.1035 7.34814C34.5066 7.34814 35.6523 8.49387 35.6523 9.89695Z" fill="#FAFAFA"/>
</g>
</svg>
