<svg width="62" height="43" viewBox="0 0 62 43" fill="none" xmlns="http://www.w3.org/2000/svg">
<path d="M30.9219 15.7363C36.2508 7.33548 40.925 3.14111 44.9473 3.14111C50.9824 3.14111 54.7935 9.8189 57.0175 18.8836C59.1418 27.5408 58.5262 39.3514 50.9824 39.3514C47.6209 39.3514 42.992 34.629 38.4657 28.3314C35.5856 24.3631 33.0612 20.1483 30.9219 15.7363Z" stroke="#FAFAFA" stroke-width="6" stroke-linecap="round" stroke-linejoin="round"/>
<path d="M30.9222 15.7363C25.5933 7.33548 20.9191 3.14111 16.8968 3.14111C10.8617 3.14111 7.05058 9.8189 4.82667 18.8836C2.70233 27.5408 3.3179 39.3514 10.8617 39.3514C14.2232 39.3514 18.8521 34.629 23.3784 28.3314C26.396 24.134 28.9096 19.9337 30.9222 15.7363Z" stroke="#FAFAFA" stroke-width="6" stroke-linecap="round" stroke-linejoin="round"/>
</svg>
